<svg id="Capa_1" enable-background="new 0 0 512 512" height="512" viewBox="0 0 512 512" width="512" xmlns="http://www.w3.org/2000/svg"><path d="m54.296 195.139 435.141 44.4c-8.469-127.632-114.66-228.539-244.437-228.539-87.786 0-164.773 46.18-208.034 115.562z" fill="#319df5"/><path d="m463.953 366.016c-40.305 80.056-123.209 134.984-218.953 134.984s-178.648-54.928-218.953-134.984z" fill="#74727f"/><path d="m269.823 366.016c-85.999 0-90.915 126.374-7.879 134.401-5.599.382-11.248.583-16.944.583-95.744 0-178.648-54.928-218.953-134.984z" fill="#5f5e6a"/><path d="m54.296 188.923-8.518-50.384c-.949-5.616-3.551-10.593-7.251-14.479-12.278 19.174-21.943 40.178-28.529 62.502z" fill="#21212b"/><path d="m169.225 119.868 83.318 57.264c9.901 6.956 23.745 12.354 35.793 13.476l23.847 2.221-19.798-19.172c-33.719-28.741-71.86-51.845-112.949-68.42l-11.354 7.59c-1.663 2.252-1.147 5.432 1.143 7.041z" fill="#363540"/><path d="m179.436 105.237-11.354 7.59c-1.664 2.251-1.148 5.431 1.143 7.041l62.048 42.645c1.812-1.788 2.845-4.262 2.789-6.912-.285-13.311 12.685-15.416 13.02-15.468-21.391-13.673-44.028-25.368-67.646-34.896z" fill="#21212b"/><path d="m218.805 180.566-33.787-24.678s3.131 28.235-20.886 39.333l48.534 2.587c9.484.505 13.808-11.641 6.139-17.242z" fill="#21212b"/><path d="m512 312.196c0-1.089-.052-2.178-.157-3.261l-1.605-16.637-26.75-9.881c-5.117-1.89-9.587-5.205-12.881-9.554l-17.214-22.729c-3.997-5.277-4.352-12.465-.894-18.11l5.124-8.365-27.498-13.47c-14.454-7.081-30.075-11.475-46.1-12.967l-95.689-8.912c-12.048-1.122-23.594-5.371-33.495-12.328l-79.872-56.116c-2.291-1.609-2.807-4.789-1.143-7.041l5.61-7.589-15.911-9.384c-2.22-1.31-5.073-.71-6.578 1.383l-15.302 21.274c-1.599 2.223-1.105 5.32 1.106 6.935l74.52 54.429c7.454 5.444 3.251 17.249-5.966 16.758l-201.114-10.717c-6.619 22.207-10.191 45.728-10.191 70.086 0 42.707 10.937 82.856 30.148 117.815h433.303 14.812l15.412-41.328c1.517-4.068 5.402-6.766 9.744-6.766h8.581z" fill="#ffc743"/><path d="m142.752 125.445 74.52 54.429c.856.625 1.551 1.336 2.109 2.101-1.396-10.148 4.532-15.269 9.504-17.741 1.698-.844 3.037-2.154 3.932-3.724l-57.847-40.642c-2.291-1.609-2.807-4.789-1.143-7.041l5.61-7.589-15.911-9.384c-2.22-1.31-5.073-.71-6.578 1.383l-15.302 21.274c-1.6 2.222-1.106 5.319 1.106 6.934z" fill="#fbb031"/><path d="m510.438 294.37-2.624-27.201c-1.191-12.343-8.699-23.185-19.836-28.64l-31.581-15.47-6.195 10.115c-3.458 5.645-3.103 12.833.894 18.11l17.213 22.728c3.294 4.349 7.763 7.664 12.88 9.554z" fill="#d6d6d0"/><path d="m507.814 267.169c-.75-7.771-4.008-14.944-9.095-20.555-13.662.686-24.529 11.981-24.529 25.813 0 2.91.488 5.705 1.375 8.316 1.758 1.138 3.641 2.091 5.625 2.823l29.248 10.803z" fill="#eeefeb"/><g fill="#fbb031"><path d="m492.527 331.339-15.84 42.477h16.952c10.14 0 18.361-8.22 18.361-18.361v-30.881h-9.73c-4.341-.001-8.226 2.697-9.743 6.765z"/><path d="m217.626 180.155c6.687 5.346 3.045 16.098-5.313 16.476l23.546 5.166c8.173 1.793 15.718 5.769 21.819 11.495l10.158 9.535c9.309 8.739 14.649 21.074 14.649 33.842v57.484c0 4.759 3.858 8.616 8.616 8.616s8.616-3.857 8.616-8.616v-57.484c0-17.508-7.321-34.423-20.087-46.406l-10.157-9.535c-8.366-7.853-18.712-13.304-29.92-15.763z"/><path d="m276.813 357.06-188.92-21.033c-12.443-1.385-22.739-10.31-25.876-22.431l-21.583-83.389c-1.95-7.535-.914-15.533 2.893-22.322l11.001-19.619-44.136-2.352c-6.62 22.207-10.192 45.728-10.192 70.086 0 42.707 10.937 82.856 30.148 117.815h250.528c-1.815-5.586-3.086-11.186-3.863-16.755z"/><path d="m117.455 228.025c-.155 0-.31-.004-.465-.013l-30.969-1.651c-4.752-.253-8.399-4.311-8.145-9.062.253-4.752 4.324-8.402 9.062-8.145l30.969 1.651c4.752.253 8.398 4.311 8.145 9.062-.245 4.596-4.048 8.158-8.597 8.158z"/></g><path d="m371.556 247.308c-65.63 0-112.162 64.161-91.896 126.508h27.091c-4.214-9.1-6.583-19.221-6.583-29.891 0-39.364 32.025-71.388 71.388-71.388 39.364 0 71.388 32.025 71.388 71.388 0 10.67-2.369 20.791-6.583 29.891h27.091c20.289-62.418-26.33-126.508-91.896-126.508z" fill="#f7991e"/><path d="m306.751 373.815c-4.214-9.1-6.583-19.221-6.583-29.891 0-24.511 12.42-46.171 31.294-59.031-.392-1.197-1.365-2.17-2.646-2.494-9.884-2.496-11.099-10.395-10.841-15.28.059-1.125-.396-2.142-1.146-2.851-33.547 23.185-51.066 66.791-37.168 109.547z" fill="#ed8718"/><path d="m371.556 416.838c-40.204 0-72.914-32.709-72.914-72.914 0-40.204 32.709-72.914 72.914-72.914s72.914 32.709 72.914 72.914c-.001 40.204-32.71 72.914-72.914 72.914z" fill="#21212b"/><path d="m421.311 397.153c-12.967-.01-15.312-8.883-15.62-13.768-.106-1.682-1.305-3.081-2.953-3.437-6.282-1.356-7.713-6.977-7.986-10.432-.128-1.617-1.386-2.906-2.99-3.149-35.164-5.335-38.453-36.382-38.583-46.46-.022-1.706-1.281-3.101-2.954-3.433-6.403-1.272-7.287-6.674-7.119-10.305.086-1.872-1.057-3.57-2.84-4.149-8.598-2.793-9.11-10.913-8.627-15.591.111-1.074-.263-2.098-.94-2.864-19.331 13.127-32.057 35.284-32.057 60.359 0 40.204 32.709 72.914 72.914 72.914 19.22 0 36.715-7.488 49.755-19.685z"/><ellipse cx="371.556" cy="343.924" fill="#d6d6d0" rx="41.161" ry="41.161" transform="matrix(.923 -.385 .385 .923 -103.826 169.714)"/><path d="m371.556 385.085c9.587 0 18.412-3.304 25.417-8.821-1.547-2.171-2.068-4.802-2.221-6.747-.128-1.617-1.386-2.906-2.99-3.149-35.164-5.335-38.453-36.382-38.583-46.46-.022-1.706-1.281-3.101-2.954-3.433-2.832-.563-4.582-1.934-5.641-3.603-8.683 7.552-14.189 18.668-14.189 31.052 0 22.696 18.465 41.161 41.161 41.161z" fill="#c6c6c1"/><path d="m371.556 393.701c-27.447 0-49.777-22.33-49.777-49.777s22.33-49.777 49.777-49.777 49.777 22.33 49.777 49.777-22.33 49.777-49.777 49.777zm0-82.322c-17.945 0-32.545 14.599-32.545 32.545 0 17.945 14.599 32.545 32.545 32.545s32.545-14.599 32.545-32.545c0-17.945-14.6-32.545-32.545-32.545z" fill="#eeefeb"/><path d="m321.779 343.924c0 27.447 22.33 49.777 49.777 49.777 12.705 0 24.308-4.791 33.113-12.653-.507-.538-1.168-.934-1.932-1.099-6.282-1.356-7.713-6.977-7.986-10.432-.06-.754-.372-1.431-.845-1.97-5.835 5.524-13.701 8.922-22.351 8.922-17.945 0-32.545-14.599-32.545-32.545 0-10.757 5.249-20.308 13.318-26.237-.527-.609-1.263-1.046-2.104-1.213-6.403-1.272-7.287-6.674-7.119-10.305.043-.931-.219-1.819-.712-2.548-12.478 9.055-20.614 23.742-20.614 40.303z" fill="#d6d6d0"/><path d="m234.617 171.695h-32.257c-4.907 0-8.922 4.015-8.922 8.922v29.044c0 4.907 4.015 8.922 8.922 8.922h32.257c11.081 0 20.147-9.066 20.147-20.147v-6.594c0-11.081-9.066-20.147-20.147-20.147z" fill="#eeefeb"/><path d="m216.418 198.436v-6.594c0-10.752 8.543-19.581 19.173-20.097-.325-.016-.645-.05-.974-.05h-32.257c-4.907 0-8.922 4.015-8.922 8.922v29.044c0 4.907 4.015 8.922 8.922 8.922h32.257c.329 0 .649-.034.974-.05-10.63-.515-19.173-9.345-19.173-20.097z" fill="#d6d6d0"/></svg>